<?xml version="1.0" encoding="UTF-8"?>
<svg version="1.1" xmlns="http://www.w3.org/2000/svg" width="1521" height="443">
<path d="M0 0 C81.18 0 162.36 0 246 0 C246 72.86766117 246 72.86766117 240.20550871 78.85386151 C234.80138745 82.10944111 230.40209632 82.70383638 224.15441895 82.60127258 C223.19203229 82.60554471 222.22964564 82.60981683 221.23809576 82.61421841 C218.02869251 82.62242294 214.82061 82.59500454 211.61132812 82.56762695 C209.30475902 82.56621594 206.99818767 82.5670095 204.69161987 82.56983948 C198.4400295 82.57127293 192.18891966 82.54189373 185.93744087 82.50696969 C179.40049812 82.47569491 172.86354411 82.47277454 166.32653809 82.46684265 C155.35790689 82.45390493 144.38944385 82.42184984 133.42089844 82.37719727 C122.12598548 82.33126403 110.83112038 82.29589061 99.53613281 82.2746582 C98.83927764 82.27334459 98.14242246 82.27203097 97.42445046 82.27067754 C93.92834316 82.2641521 90.43223552 82.25783362 86.93612766 82.25161803 C57.95728069 82.19983015 28.97869828 82.10767947 0 82 C0 54.94 0 27.88 0 0 Z " fill="#00FCB8" transform="translate(75,80)"/>
<path d="M0 0 C54.12 0 108.24 0 164 0 C164 70 164 70 160 77 C155.44733152 81.11908101 153.02536318 82.12522534 146.95101929 82.12025452 C145.66090439 82.12162918 144.37078949 82.12300385 143.0415802 82.12442017 C141.60372902 82.12088077 140.16587807 82.11724596 138.72802734 82.11352539 C137.22036236 82.11324345 135.71269725 82.11340139 134.20503235 82.1139679 C130.10402995 82.11425559 126.00305661 82.10836332 121.90206099 82.10139394 C117.6192486 82.09515581 113.33643561 82.09455624 109.05361938 82.09336853 C100.93988143 82.09025658 92.82615691 82.08204501 84.71242487 82.07201904 C73.75089053 82.05876723 62.78935253 82.0533569 51.82781219 82.04751682 C34.55186474 82.03810503 17.27594561 82.01818521 0 82 C0 54.94 0 27.88 0 0 Z " fill="#39B2B2" transform="translate(75,182)"/>
<path d="M0 0 C30 0 30 0 37.75 7.1875 C40.5390625 11.62890625 40.5390625 11.62890625 41.78222656 13.87548828 C43.59640438 17.04047934 45.84062071 19.79178496 48.125 22.625 C48.92292969 23.67042969 49.72085938 24.71585937 50.54296875 25.79296875 C53.14402685 29.19854261 55.78699902 32.57033194 58.4375 35.9375 C58.89165283 36.51467773 59.34580566 37.09185547 59.8137207 37.68652344 C61.69462857 40.07563207 63.57695243 42.46362096 65.45996094 44.85107422 C66.43794699 46.09126451 67.41556889 47.33174205 68.39282227 48.57250977 C69.30133263 49.72599765 70.21060309 50.87888753 71.12084961 52.03100586 C74.486812 56.30539743 77.73277106 60.64369475 81 65 C81.33 43.55 81.66 22.1 82 0 C93.55 0 105.1 0 117 0 C117.06779189 14.48208582 117.12282567 28.96406614 117.15543652 43.44627476 C117.17088744 50.17102818 117.19194281 56.89567582 117.22631836 63.62036133 C117.25892784 70.11074381 117.27685653 76.60101644 117.28463173 83.09147453 C117.29017233 85.56698269 117.30099173 88.04248488 117.31719017 90.51794624 C117.33898499 93.98678683 117.34196599 97.45517416 117.34057617 100.92407227 C117.351362 101.94618805 117.36214783 102.96830383 117.3732605 104.02139282 C117.34823951 109.79739118 116.793314 113.90539987 114 119 C108.00205316 124.62307516 98.95016551 124.08417723 91.19140625 123.84375 C86.73858866 123.40154786 84.3647802 122.51907576 81.51220703 119.05932617 C79.93495492 116.72324582 78.49329064 114.33625114 77.11572266 111.87744141 C75.23104257 108.70606507 72.88599163 105.91901369 70.5625 103.0625 C69.63477528 101.88825159 68.70899828 100.7124618 67.78515625 99.53515625 C67.09510498 98.65947998 67.09510498 98.65947998 66.39111328 97.76611328 C64.09125758 94.84628946 61.79587641 91.92295297 59.5 89 C58.58724669 87.83853608 57.67448627 86.67707775 56.76171875 85.515625 C54.88811228 83.13115604 53.01588018 80.74561605 51.14453125 78.359375 C50.67015625 77.75480469 50.19578125 77.15023437 49.70703125 76.52734375 C48.82253225 75.4000411 47.93837615 74.27246925 47.0546875 73.14453125 C44.33060984 69.67366595 41.58224451 66.22286905 38.82495117 62.77832031 C37.74911018 61.43414032 37.74911018 61.43414032 36.65153503 60.06280518 C36.10652847 59.38207947 35.56152191 58.70135376 35 58 C34.99857498 58.71552536 34.99714996 59.43105072 34.99568176 60.16825867 C34.97782919 66.92172091 34.93614987 73.67457065 34.86790943 80.42772198 C34.83366304 83.89941175 34.80853332 87.37066263 34.80444336 90.8425293 C34.79933406 94.83695467 34.75420534 98.83006706 34.70703125 102.82421875 C34.71293022 104.68852791 34.71293022 104.68852791 34.71894836 106.59049988 C34.5732479 115.20079592 34.5732479 115.20079592 31.70581055 119.19848633 C20.68909649 126.53335351 18.6560247 123 0 123 C0 82.41 0 41.82 0 0 Z " fill="#1D5472" transform="translate(585,244)"/>
<path d="M0 0 C28.59506652 0 28.59506652 0 33.99951172 4.76171875 C34.51271973 5.39722656 35.02592773 6.03273437 35.5546875 6.6875 C36.4223877 7.74710938 36.4223877 7.74710938 37.30761719 8.828125 C38.14534668 9.90320313 38.14534668 9.90320313 39 11 C39.5146582 11.65484375 40.02931641 12.3096875 40.55957031 12.984375 C42.10012616 14.97604384 43.61485114 16.98519802 45.125 19 C49.54257805 24.83859463 54.04701977 30.58694771 58.6875 36.25 C66.38312364 45.6464221 73.71169877 55.28226503 81 65 C81.33 43.55 81.66 22.1 82 0 C93.55 0 105.1 0 117 0 C117.06779189 14.48208582 117.12282567 28.96406614 117.15543652 43.44627476 C117.17088744 50.17102818 117.19194281 56.89567582 117.22631836 63.62036133 C117.25892784 70.11074381 117.27685653 76.60101644 117.28463173 83.09147453 C117.29017233 85.56698269 117.30099173 88.04248488 117.31719017 90.51794624 C117.33898499 93.98678683 117.34196599 97.45517416 117.34057617 100.92407227 C117.351362 101.94618805 117.36214783 102.96830383 117.3732605 104.02139282 C117.34823951 109.79739118 116.793314 113.90539987 114 119 C108.00205316 124.62307516 98.95016551 124.08417723 91.19140625 123.84375 C86.73858866 123.40154786 84.3647802 122.51907576 81.51220703 119.05932617 C79.93495492 116.72324582 78.49329064 114.33625114 77.11572266 111.87744141 C75.23104257 108.70606507 72.88599163 105.91901369 70.5625 103.0625 C69.63477528 101.88825159 68.70899828 100.7124618 67.78515625 99.53515625 C67.09510498 98.65947998 67.09510498 98.65947998 66.39111328 97.76611328 C64.09125758 94.84628946 61.79587641 91.92295297 59.5 89 C58.58724669 87.83853608 57.67448627 86.67707775 56.76171875 85.515625 C54.88811228 83.13115604 53.01588018 80.74561605 51.14453125 78.359375 C50.67015625 77.75480469 50.19578125 77.15023437 49.70703125 76.52734375 C48.82253225 75.4000411 47.93837615 74.27246925 47.0546875 73.14453125 C44.33060984 69.67366595 41.58224451 66.22286905 38.82495117 62.77832031 C37.74911018 61.43414032 37.74911018 61.43414032 36.65153503 60.06280518 C36.10652847 59.38207947 35.56152191 58.70135376 35 58 C34.99413376 58.70299728 34.98826752 59.40599457 34.98222351 60.1302948 C34.92424151 66.76593488 34.85213363 73.401255 34.76428509 80.03657055 C34.71961929 83.44761464 34.68035533 86.85854036 34.65356445 90.26977539 C34.62250194 94.19443149 34.56771382 98.11858601 34.51171875 102.04296875 C34.50213387 103.87446724 34.50213387 103.87446724 34.49235535 105.7429657 C34.47256119 106.8837709 34.45276703 108.02457611 34.43237305 109.19995117 C34.42126999 110.20144699 34.41016693 111.20294281 34.39872742 112.23478699 C33.91584645 115.58361294 33.10712514 117.34896032 31 120 C25 123 25 123 0 123 C0 82.41 0 41.82 0 0 Z " fill="#1D5472" transform="translate(866,244)"/>
<path d="M0 0 C30 0 30 0 38.0625 7.9375 C39.91137695 10.60400391 39.91137695 10.60400391 41.11328125 12.9140625 C43.8981924 17.94160522 47.18120084 22.32080669 50.75 26.8125 C51.82733392 28.21766918 52.90162938 29.6251739 53.97265625 31.03515625 C56.70281392 34.61304985 59.44225147 38.18367654 62.1875 41.75 C62.97511719 42.77351563 63.76273438 43.79703125 64.57421875 44.8515625 C66.3046029 47.09743952 68.03638676 49.34219357 69.76953125 51.5859375 C70.22626221 52.17793945 70.68299316 52.76994141 71.15356445 53.37988281 C72.02757179 54.51268507 72.90236344 55.64488277 73.77807617 56.77636719 C75.60281863 59.14250853 77.34140078 61.51210117 79 64 C79.33 42.88 79.66 21.76 80 0 C91.22 0 102.44 0 114 0 C114.09035245 14.76011577 114.16401215 29.52005944 114.20724869 44.28038979 C114.22785927 51.13413022 114.25595073 57.98768642 114.30175781 64.84130859 C114.34593924 71.4548641 114.36913508 78.06827846 114.37950897 84.68198776 C114.38690231 87.20578398 114.40133962 89.72956967 114.42292023 92.25328445 C114.45193766 95.78708829 114.45595653 99.32010019 114.45410156 102.85400391 C114.46848267 103.89841644 114.48286377 104.94282898 114.49768066 106.01889038 C114.46370592 111.99657926 113.99301935 115.44911674 110 120 C103.73090529 124.25383267 93.86909838 123.6897955 86.66650391 122.78027344 C79.48151127 120.67779802 75.91176232 113.2835031 72.33349609 107.20507812 C70.46429987 104.11416266 68.31297465 101.38918314 66.0625 98.5625 C65.26714844 97.52867187 64.47179688 96.49484375 63.65234375 95.4296875 C61.67360535 92.86592418 59.68421402 90.31065327 57.69140625 87.7578125 C57.10157959 87.00169678 56.51175293 86.24558105 55.90405273 85.46655273 C54.77865906 84.02486892 53.65202654 82.58415057 52.52368164 81.14477539 C46.56823026 73.51637471 40.79354107 65.75152684 35 58 C34.99413376 58.66319244 34.98826752 59.32638489 34.98222351 60.00967407 C34.91822292 66.92062848 34.83378543 73.8311201 34.73754883 80.74169922 C34.70432219 83.3197621 34.67628327 85.89789733 34.65356445 88.47607422 C34.61997793 92.18488354 34.56765756 95.8930312 34.51171875 99.6015625 C34.50213387 101.32688705 34.50213387 101.32688705 34.49235535 103.08706665 C34.37043915 109.74311425 33.88607178 114.51266326 29.5 119.8125 C21.9753244 125.76953485 5.2911709 122 0 122 C0 81.74 0 41.48 0 0 Z " fill="#1D5472" transform="translate(1201,80)"/>
<path d="M0 0 C28 0 28 0 35 6 C37.30078125 8.75390625 37.30078125 8.75390625 39.3125 11.5625 C40.07304688 12.60664062 40.83359375 13.65078125 41.6171875 14.7265625 C42.00745117 15.26571289 42.39771484 15.80486328 42.79980469 16.36035156 C44.79765041 19.08971118 46.8680068 21.76230148 48.9375 24.4375 C49.78000595 25.52990316 50.62245361 26.62235128 51.46484375 27.71484375 C52.09302002 28.52864502 52.09302002 28.52864502 52.73388672 29.35888672 C55.23954612 32.60667741 57.73887447 35.85934379 60.23876953 39.11157227 C62.38078388 41.89753863 64.52576797 44.68113812 66.67578125 47.4609375 C67.11728516 48.03263672 67.55878906 48.60433594 68.01367188 49.19335938 C69.23354634 50.77277579 70.45462237 52.35126395 71.67578125 53.9296875 C74.1810019 57.23910503 76.58745012 60.62243017 79 64 C79.33 42.88 79.66 21.76 80 0 C91.22 0 102.44 0 114 0 C114.09035245 14.76011577 114.16401215 29.52005944 114.20724869 44.28038979 C114.22785927 51.13413022 114.25595073 57.98768642 114.30175781 64.84130859 C114.34593924 71.4548641 114.36913508 78.06827846 114.37950897 84.68198776 C114.38690231 87.20578398 114.40133962 89.72956967 114.42292023 92.25328445 C114.45193766 95.78708829 114.45595653 99.32010019 114.45410156 102.85400391 C114.46848267 103.89841644 114.48286377 104.94282898 114.49768066 106.01889038 C114.46370508 111.99672578 113.99277739 115.4488321 110 120 C103.73858247 124.26045903 93.81329254 123.59724296 86.61474609 122.72851562 C79.74878157 120.81553354 76.60966815 113.98929166 73.30029297 108.17626953 C71.28937228 104.81063922 68.85261199 101.84164996 66.375 98.8125 C65.46002082 97.65930905 64.54723128 96.50437713 63.63671875 95.34765625 C63.19505371 94.78836426 62.75338867 94.22907227 62.29833984 93.65283203 C59.42031992 89.98901201 56.59637502 86.28331525 53.76171875 82.5859375 C51.63000341 79.81127317 49.48322703 77.04864938 47.33203125 74.2890625 C46.69821533 73.47598633 46.06439941 72.66291016 45.41137695 71.82519531 C44.15689758 70.21707742 42.90155464 68.60963273 41.64526367 67.00292969 C41.07138916 66.26719727 40.49751465 65.53146484 39.90625 64.7734375 C39.13764648 63.78996338 39.13764648 63.78996338 38.35351562 62.78662109 C37.17709844 61.23376738 36.08064255 59.62096383 35 58 C34.99413376 58.66319244 34.98826752 59.32638489 34.98222351 60.00967407 C34.91822292 66.92062848 34.83378543 73.8311201 34.73754883 80.74169922 C34.70432219 83.3197621 34.67628327 85.89789733 34.65356445 88.47607422 C34.61997793 92.18488354 34.56765756 95.8930312 34.51171875 99.6015625 C34.50213387 101.32688705 34.50213387 101.32688705 34.49235535 103.08706665 C34.37043915 109.74311425 33.88607178 114.51266326 29.5 119.8125 C21.9753244 125.76953485 5.2911709 122 0 122 C0 81.74 0 41.48 0 0 Z " fill="#1D5472" transform="translate(788,80)"/>
<path d="M0 0 C17.56853858 -0.5438444 33.53664261 4.33125553 47.40234375 15.16015625 C48.43294922 15.92585938 48.43294922 15.92585938 49.484375 16.70703125 C60.77733405 25.70575996 68.75627782 40.17759305 71.12109375 54.34375 C72.79985535 71.15468212 70.66755631 87.99780466 60.1171875 101.84716797 C57.08561631 105.50167953 53.79593011 108.84288742 50.40234375 112.16015625 C49.84160156 112.753125 49.28085937 113.34609375 48.703125 113.95703125 C35.93479578 126.42374639 17.41921835 129.67292536 0.4050293 129.58032227 C-18.60630209 129.1169923 -35.4915662 121.73068279 -48.74609375 107.921875 C-60.92981601 93.66085144 -65.90543662 76.93529612 -64.80908203 58.39550781 C-63.19507061 41.33097132 -54.25389961 26.5647485 -41.47265625 15.47265625 C-29.29078775 5.93975361 -15.3696605 0.94760313 0 0 Z M-23.84765625 44.47265625 C-30.10621778 54.0840186 -31.18016499 63.96464741 -29.0078125 75.21484375 C-26.47113111 83.46782559 -21.2175967 90.21773444 -13.9296875 94.859375 C-4.62836292 99.65429712 4.86826962 100.90188286 15.02734375 97.72265625 C24.20215929 93.94401112 30.50908048 87.37978789 34.5625 78.421875 C37.94717923 69.30685513 37.61135894 58.70607659 33.8515625 49.76171875 C28.42388635 40.01823541 20.79972241 34.62594914 10.40234375 31.16015625 C-4.82594242 29.95219077 -13.42165799 33.75704693 -23.84765625 44.47265625 Z " fill="#1D5472" transform="translate(696.59765625,75.83984375)"/>
<path d="M0 0 C10.786875 -0.0825 21.57375 -0.165 32.6875 -0.25 C36.06701904 -0.28641602 39.44653809 -0.32283203 42.9284668 -0.36035156 C45.64371101 -0.37204737 48.3589623 -0.38223707 51.07421875 -0.390625 C52.10419731 -0.40630524 52.10419731 -0.40630524 53.15498352 -0.42230225 C68.1776473 -0.63915096 80.56967523 2.19282444 91.7734375 12.65625 C101.14764157 22.74422596 102.55926404 33.77563438 102.33984375 46.921875 C101.8843983 57.1646732 97.37880152 65.0735388 90 72 C87.68473389 74.02158555 85.34864547 76.01733476 83 78 C85.30799108 82.18999686 87.62099987 86.37720264 89.9375 90.5625 C90.27814484 91.17825897 90.61878967 91.79401794 90.96975708 92.42843628 C95.34696889 100.33241464 99.77163059 108.19503648 104.56030273 115.85961914 C107 119.80167828 107 119.80167828 107 122 C95.12 122 83.24 122 71 122 C66.625 114.125 66.625 114.125 65.16503906 111.49267578 C62.82629544 107.27666478 60.47740972 103.06682458 58.109375 98.8671875 C57.42174072 97.64298096 57.42174072 97.64298096 56.72021484 96.39404297 C55.83330626 94.81563543 54.94307908 93.23908738 54.04931641 91.66455078 C51 86.22486481 51 86.22486481 51 84 C45.39 84 39.78 84 34 84 C34.04640625 86.09601563 34.0928125 88.19203125 34.140625 90.3515625 C34.17188075 92.39694806 34.19613387 94.44230633 34.21972656 96.48779297 C34.23975843 97.90197795 34.26699248 99.31608097 34.30175781 100.72998047 C34.35065489 102.77071419 34.37305123 104.8103469 34.390625 106.8515625 C34.41157227 108.07697754 34.43251953 109.30239258 34.45410156 110.56494141 C33.90616505 114.70981601 32.65740822 116.80213162 30 120 C21.03587397 124.48206302 10.02219759 122 0 122 C0 81.74 0 41.48 0 0 Z M34 30 C34 37.59 34 45.18 34 53 C38.39620224 53.0809117 42.79091597 53.14046573 47.1875 53.1875 C49.05631836 53.22520508 49.05631836 53.22520508 50.96289062 53.26367188 C52.16494141 53.27333984 53.36699219 53.28300781 54.60546875 53.29296875 C56.26292114 53.31653442 56.26292114 53.31653442 57.95385742 53.34057617 C61.41957694 52.9530889 63.23337686 52.09343887 66 50 C68.36665555 46.1064699 69.37195705 43.26363312 68.5 38.8125 C67.2973926 34.95818062 65.48035277 33.12216632 62 31 C58.82212459 29.9407082 56.57411057 29.88541061 53.23828125 29.90234375 C51.56088867 29.90717773 51.56088867 29.90717773 49.84960938 29.91210938 C48.68236328 29.92048828 47.51511719 29.92886719 46.3125 29.9375 C45.13365234 29.94201172 43.95480469 29.94652344 42.74023438 29.95117188 C39.82680133 29.96296715 36.91339433 29.98090273 34 30 Z " fill="#1D5472" transform="translate(514,80)"/>
<path d="M0 0 C12.54 0 25.08 0 38 0 C40.4879085 5.59779413 42.90734214 11.1429982 45.1171875 16.84375 C45.40701004 17.58647156 45.69683258 18.32919312 45.99543762 19.09442139 C46.95752309 21.56208506 47.91634588 24.03100147 48.875 26.5 C49.56216812 28.26533364 50.24942657 30.03063211 50.93676758 31.79589844 C60.28166965 55.81537447 69.57452724 79.85638227 78.80892944 103.9185791 C79.66474028 106.13264894 80.53183461 108.34236963 81.40615845 110.54919434 C82.09420059 112.29746521 82.09420059 112.29746521 82.79614258 114.08105469 C83.21744949 115.14185242 83.63875641 116.20265015 84.0728302 117.29559326 C85 120 85 120 85 123 C72.79 123 60.58 123 48 123 C43.545 110.625 43.545 110.625 39 98 C19.2 97.505 19.2 97.505 -1 97 C-1.66 99.97 -2.32 102.94 -3 106 C-4.98 111.61 -6.96 117.22 -9 123 C-21.54 123 -34.08 123 -47 123 C-40.11636581 103.49636981 -40.11636581 103.49636981 -36.9609375 95.44921875 C-36.60161636 94.5258522 -36.24229523 93.60248566 -35.87208557 92.65113831 C-35.10505258 90.68068156 -34.33687235 88.71067105 -33.56759644 86.74108887 C-31.48612831 81.41158451 -29.41349829 76.07864204 -27.33984375 70.74609375 C-26.90827469 69.63690582 -26.47670563 68.5277179 -26.03205872 67.38491821 C-20.51901216 53.20695339 -15.06794608 39.0051436 -9.61419678 24.80429077 C-8.77072639 22.60800847 -7.92715855 20.41176358 -7.08348083 18.21556091 C-6.31885033 16.22494539 -5.55455622 14.23420061 -4.79066467 12.24330139 C-4.45103195 11.3589592 -4.11139923 10.474617 -3.76147461 9.56347656 C-3.46792587 8.79859924 -3.17437714 8.03372192 -2.87193298 7.2456665 C-1.9315825 4.82379049 -0.96488287 2.41220718 0 0 Z M19 37 C17.57007953 41.21560331 16.14608199 45.43314642 14.72753906 49.65258789 C14.24413754 51.08770643 13.75912183 52.52228229 13.27246094 53.95629883 C12.57321879 56.01763614 11.87980523 58.08085542 11.1875 60.14453125 C10.76855469 61.38565674 10.34960938 62.62678223 9.91796875 63.90551758 C8.85780132 66.94139187 8.85780132 66.94139187 9 70 C11.4178712 70.10826289 13.83087556 70.18739789 16.25 70.25 C16.93191406 70.28351563 17.61382813 70.31703125 18.31640625 70.3515625 C21.63890215 70.41607698 23.70102811 70.18525252 26.546875 68.421875 C28.18884385 65.68526025 28.23947114 64.22808237 27.58642578 61.13623047 C26.33235896 56.56791877 24.91608425 52.06266631 23.4375 47.5625 C23.10814453 46.54478516 22.77878906 45.52707031 22.43945312 44.47851562 C21.63136468 41.98398174 20.81809872 39.49126517 20 37 C19.67 37 19.34 37 19 37 Z " fill="#1D5472" transform="translate(1246,244)"/>
<path d="M0 0 C31.02 0 62.04 0 94 0 C94 21 94 21 89 27 C86.47255912 28.26372044 84.73619692 28.12022795 81.90771484 28.11352539 C80.31629166 28.11341209 80.31629166 28.11341209 78.69271851 28.11329651 C77.54373077 28.10813522 76.39474304 28.10297394 75.2109375 28.09765625 C74.03737701 28.0962413 72.86381653 28.09482635 71.6546936 28.09336853 C67.89477015 28.08775689 64.13490555 28.07520238 60.375 28.0625 C57.83073002 28.0574865 55.28645912 28.05292333 52.7421875 28.04882812 C46.49476888 28.03778367 40.24739443 28.02051119 34 28 C34 34.27 34 40.54 34 47 C49.18 47 64.36 47 80 47 C80 66 80 66 77 71 C72.04629438 74.21738956 66.29261368 74.41546666 60.5625 74.29296875 C59.79695801 74.28872391 59.03141602 74.28447906 58.24267578 74.28010559 C55.82807313 74.26348328 53.41434489 74.22586506 51 74.1875 C49.35027258 74.17243178 47.70053191 74.15874714 46.05078125 74.14648438 C42.03325675 74.11620153 38.01759221 74.05745497 34 74 C34 80.27 34 86.54 34 93 C54.46 93 74.92 93 96 93 C96 114 96 114 92 120 C88.38322995 122.86691423 83.87492516 122.26620374 79.46777344 122.22705078 C78.15864172 122.22741239 78.15864172 122.22741239 76.8230629 122.2277813 C74.00172942 122.22629011 71.18066113 122.21106624 68.359375 122.1953125 C66.61604947 122.19237146 64.87272218 122.19033139 63.12939453 122.18920898 C56.6695694 122.17872869 50.20978209 122.15080624 43.75 122.125 C29.3125 122.08375 14.875 122.0425 0 122 C0 81.74 0 41.48 0 0 Z " fill="#1D5472" transform="translate(1342,80)"/>
<path d="M0 0 C4.23766987 3.29042602 7.63445197 6.60839851 10.90625 10.875 C9.41971494 14.34129835 7.44902649 16.56522036 4.7734375 19.203125 C3.96777344 20.00234375 3.16210938 20.8015625 2.33203125 21.625 C1.49027344 22.45 0.64851563 23.275 -0.21875 24.125 C-1.06824219 24.96546875 -1.91773438 25.8059375 -2.79296875 26.671875 C-4.88879923 28.74415683 -6.98915713 30.81162393 -9.09375 32.875 C-12.13996841 31.42144454 -14.19149843 29.93841109 -16.59375 27.5625 C-23.8823922 21.07316986 -33.33459314 17.6157724 -43.09375 17.875 C-50.75316705 18.49515166 -56.70609837 20.64673667 -63.09375 24.875 C-64.00125 25.473125 -64.90875 26.07125 -65.84375 26.6875 C-72.79145993 33.44221799 -75.9585045 42.28759672 -76.09375 51.875 C-75.20766424 61.74852707 -72.07735682 69.73267485 -65.09375 76.875 C-57.52124436 83.08833796 -48.26135031 85.26865079 -38.59375 84.875 C-26.91729529 83.57450864 -17.21007434 78.21335145 -9.09375 69.875 C-5.44335593 71.37955431 -3.41856901 73.47831053 -0.84375 76.4375 C-0.06644531 77.32308594 0.71085937 78.20867187 1.51171875 79.12109375 C2.30191406 80.02988281 3.09210938 80.93867188 3.90625 81.875 C5.42532307 83.58489878 6.94602234 85.29335497 8.46875 87 C9.61490596 88.2913804 10.76086745 89.58293358 11.90625 90.875 C4.86261454 103.46223744 -9.27063098 110.48968382 -22.71875 114.375 C-43.27800671 119.2544173 -64.11318608 115.67215235 -82.09375 104.875 C-85.67514488 102.43766182 -88.91732413 99.8181918 -92.09375 96.875 C-93.13789062 95.91207031 -93.13789062 95.91207031 -94.203125 94.9296875 C-105.46594509 83.4485957 -111.27162005 67.23611091 -111.46875 51.375 C-111.26969455 33.83492964 -104.22615161 18.48789276 -92.09375 5.875 C-66.94909463 -18.24682193 -28.06714717 -19.27844452 0 0 Z " fill="#1D5472" transform="translate(1117.09375,254.125)"/>
<path d="M0 0 C31.68 0 63.36 0 96 0 C96 23 96 23 92 29 C88.9251372 31.18866659 86.30699218 31.2444252 82.58886719 31.22705078 C81.50804871 31.22689972 80.42723022 31.22674866 79.31365967 31.22659302 C78.15312073 31.21627045 76.99258179 31.20594788 75.796875 31.1953125 C74.00748505 31.19106766 74.00748505 31.19106766 72.1819458 31.18673706 C68.37119524 31.17554053 64.56067955 31.15043653 60.75 31.125 C58.16667006 31.11496954 55.58333644 31.1058438 53 31.09765625 C46.66657615 31.07560285 40.3333279 31.04107626 34 31 C34 37.27 34 43.54 34 50 C49.84 50 65.68 50 82 50 C82 73.64122486 82 73.64122486 77.39746094 78.79418945 C73.58717029 80.71058716 69.84225113 80.36721992 65.640625 80.29296875 C64.73624695 80.28872391 63.8318689 80.28447906 62.90008545 80.28010559 C60.01641861 80.26333574 57.133455 80.22568669 54.25 80.1875 C52.29297886 80.17245097 50.33594674 80.15876295 48.37890625 80.14648438 C43.58566725 80.11343774 38.79295279 80.06166705 34 80 C34.02094727 81.06436279 34.04189453 82.12872559 34.06347656 83.2253418 C34.13603962 87.18549066 34.18185851 91.1455811 34.21972656 95.10620117 C34.23980505 96.81821586 34.26707392 98.53016228 34.30175781 100.24194336 C34.35044401 102.70704008 34.37300573 105.1712279 34.390625 107.63671875 C34.41127014 108.39836838 34.43191528 109.16001801 34.45318604 109.94474792 C34.45469544 113.5436905 34.13213201 115.77634415 32.28808594 118.89770508 C23.48721006 126.98395584 11.50333581 123 0 123 C0 82.41 0 41.82 0 0 Z " fill="#1D5472" transform="translate(402,244)"/>
<path d="M0 0 C31.02 0 62.04 0 94 0 C94 22 94 22 90 28 C86.96892958 30.14462348 84.43291649 30.24481998 80.77246094 30.22705078 C79.73168396 30.22689972 78.69090698 30.22674866 77.61859131 30.22659302 C75.94340424 30.21110916 75.94340424 30.21110916 74.234375 30.1953125 C73.08584045 30.1924826 71.93730591 30.18965271 70.75396729 30.18673706 C67.08587219 30.17554263 63.4180213 30.15043904 59.75 30.125 C57.26302436 30.11496926 54.77604489 30.10584358 52.2890625 30.09765625 C46.19261425 30.07560564 40.09634853 30.04108052 34 30 C34 36.27 34 42.54 34 49 C49.18 49 64.36 49 80 49 C80 72 80 72 75 78 C70.79028154 80.50545351 66.40455146 80.25993052 61.63671875 80.1953125 C60.84473587 80.1924826 60.05275299 80.18965271 59.23677063 80.18673706 C56.72019001 80.17558863 54.20397211 80.15049422 51.6875 80.125 C49.97591662 80.11496329 48.26432763 80.10583864 46.55273438 80.09765625 C42.36835094 80.07566681 38.18423686 80.04117408 34 80 C34.01571045 80.90242432 34.0314209 81.80484863 34.04760742 82.73461914 C34.09899354 86.10984134 34.1364741 89.48464271 34.16479492 92.86010742 C34.17980313 94.31590368 34.20021633 95.77165532 34.22631836 97.22729492 C34.26305676 99.33002789 34.2798056 101.43215885 34.29296875 103.53515625 C34.3086792 104.797229 34.32438965 106.05930176 34.34057617 107.35961914 C33.94790243 111.55686508 33.07621498 114.32833461 31 118 C25 122 25 122 0 122 C0 81.74 0 41.48 0 0 Z " fill="#1D5472" transform="translate(402,80)"/>
<path d="M0 0 C27.39 0 54.78 0 83 0 C83.061875 11.075625 83.12375 22.15125 83.1875 33.5625 C83.22846802 38.79202515 83.22846802 38.79202515 83.27026367 44.12719727 C83.28381348 48.4119873 83.28381348 48.4119873 83.28633118 50.42320251 C83.29091273 51.81625754 83.30141145 53.20930129 83.31672668 54.60227966 C83.33885829 56.72277221 83.34171241 58.84254312 83.34057617 60.96313477 C83.35056892 62.75183739 83.35056892 62.75183739 83.36076355 64.57667542 C82.79005945 69.99214868 81.02012532 74.77667934 76.6875 78.3125 C76.13449219 78.78300781 75.58148438 79.25351562 75.01171875 79.73828125 C70.27829904 82.70700856 65.66292105 83.24778461 60.16845703 83.22705078 C59.17119756 83.22741239 59.17119756 83.22741239 58.15379143 83.2277813 C56.02165782 83.22629965 53.88988278 83.2111205 51.7578125 83.1953125 C50.44675537 83.19329834 49.13569824 83.19128418 47.78491211 83.18920898 C42.89823903 83.17876315 38.01161592 83.15084059 33.125 83.125 C16.728125 83.063125 16.728125 83.063125 0 83 C0 55.61 0 28.22 0 0 Z " fill="#1D5472" transform="translate(75,284)"/>
<path d="M0 0 C33.66 0 67.32 0 102 0 C102 22 102 22 98 28 C94.77407899 30.35079518 91.83936215 30.23371924 87.921875 30.1953125 C86.18164062 30.18564453 86.18164062 30.18564453 84.40625 30.17578125 C83.1996875 30.15902344 81.993125 30.14226562 80.75 30.125 C78.91695312 30.11146484 78.91695312 30.11146484 77.046875 30.09765625 C74.03105218 30.07409513 71.01562508 30.04119706 68 30 C68.00888245 31.03903473 68.01776489 32.07806946 68.0269165 33.14859009 C68.10805553 42.94761184 68.16799096 52.74656529 68.20724869 62.54584694 C68.22811016 67.58360436 68.25640163 72.62109025 68.30175781 77.65869141 C68.34526674 82.52163735 68.36914795 87.38432237 68.37950897 92.24744797 C68.38689127 94.10139447 68.40130728 95.95532693 68.42292023 97.80916214 C68.45202154 100.40905703 68.45595323 103.00787821 68.45410156 105.60791016 C68.46848267 106.37180054 68.48286377 107.13569092 68.49768066 107.92272949 C68.4579151 113.09378166 67.35444775 116.07348339 64 120 C55.03587397 124.48206302 44.02219759 122 34 122 C34 91.64 34 61.28 34 30 C22.78 30 11.56 30 0 30 C0 20.1 0 10.2 0 0 Z " fill="#1D5472" transform="translate(918,80)"/>
<path d="M0 0 C11.55 0 23.1 0 35 0 C35 30.36 35 60.72 35 92 C53.15 92 71.3 92 90 92 C90 114 90 114 86 120 C81.43887083 123.07629705 77.33209706 123.42001944 71.97509766 123.34057617 C71.18139959 123.34093778 70.38770153 123.34129938 69.56995201 123.34167194 C67.01772626 123.33944464 64.46616964 123.3166543 61.9140625 123.29296875 C60.33162756 123.28855421 58.74918825 123.28549595 57.16674805 123.28381348 C51.3194316 123.26812755 45.47220913 123.22624367 39.625 123.1875 C26.54875 123.125625 13.4725 123.06375 0 123 C0 82.41 0 41.82 0 0 Z " fill="#1D5472" transform="translate(1347,244)"/>
<path d="M0 0 C11.22 0 22.44 0 34 0 C34 30.36 34 60.72 34 92 C51.82 92 69.64 92 88 92 C88 114.5 88 114.5 83.5 119.75 C79.9717266 122.69022783 75.73339491 122.13486779 71.4074707 122.11352539 C70.62404643 122.11364593 69.84062216 122.11376646 69.03345776 122.11389065 C66.49753671 122.11314426 63.96168915 122.10552849 61.42578125 122.09765625 C59.86014847 122.09618598 58.2945152 122.09516579 56.72888184 122.09460449 C50.92341373 122.08936145 45.11795614 122.07540025 39.3125 122.0625 C26.339375 122.041875 13.36625 122.02125 0 122 C0 81.74 0 41.48 0 0 Z " fill="#1D5472" transform="translate(1036,80)"/>
<path d="M0 0 C11.22 0 22.44 0 34 0 C34.11289629 15.03813284 34.2049892 30.07604847 34.25906086 45.11450481 C34.28483539 52.0972429 34.31997088 59.07969886 34.37719727 66.06225586 C34.43238307 72.79904376 34.46141034 79.53547783 34.47438622 86.27250099 C34.48363498 88.84458852 34.50169539 91.41665975 34.52865028 93.98862267 C34.56487149 97.58741494 34.56994795 101.18499075 34.56762695 104.78393555 C34.58560333 105.85064484 34.60357971 106.91735413 34.62210083 108.01638794 C34.57165323 115.23061668 34.57165323 115.23061668 31.71452332 119.07600403 C20.98634617 126.67990615 18.02382327 123 0 123 C0 82.41 0 41.82 0 0 Z " fill="#1D5472" transform="translate(520,244)"/>
<path d="M0 0 C11.22 0 22.44 0 34 0 C34.13557426 14.87319151 34.24604395 29.74606543 34.31087303 44.61972904 C34.34177792 51.52625248 34.38389259 58.43236403 34.45263672 65.33862305 C34.51895251 72.00411577 34.55371063 78.66909232 34.56926346 85.33492851 C34.58034633 87.87747366 34.60198877 90.41999551 34.63438034 92.96235847 C34.6779639 96.52498002 34.68393285 100.08583622 34.68115234 103.64868164 C34.702724 104.69884964 34.72429565 105.74901764 34.746521 106.83100891 C34.69551433 112.87445751 33.86753519 116.32156686 29.67917824 120.77016354 C22.31370534 126.16466362 4.24976856 123 0 123 C0 82.41 0 41.82 0 0 Z " fill="#1D5472" transform="translate(1149,244)"/>
<path d="M0 0 C11.22 0 22.44 0 34 0 C34.06773999 14.77739268 34.12299512 29.55468887 34.15543652 44.33220196 C34.17090049 51.19377389 34.19198091 58.05524246 34.22631836 64.91674805 C34.2594316 71.53678469 34.27684682 78.15674206 34.28463173 84.77686501 C34.29018059 87.30426538 34.30101595 89.8316598 34.31719017 92.35901451 C34.33892401 95.89531603 34.34196855 99.43117188 34.34057617 102.9675293 C34.351362 104.01553711 34.36214783 105.06354492 34.3732605 106.14331055 C34.33425441 115.28087863 34.33425441 115.28087863 31 119 C26 122 26 122 0 122 C0 81.74 0 41.48 0 0 Z " fill="#1D5472" transform="translate(1140,80)"/>
</svg>
