<?xml version="1.0" encoding="UTF-8"?>
<svg version="1.1" xmlns="http://www.w3.org/2000/svg" width="524" height="582" viewBox="0 0 524 582">
<path d="M0 0 C121.77 0 243.54 0 369 0 C369 106.98520085 369 106.98520085 361 116 C354.83933203 121.09296121 350.04132189 123.12591414 342.07296371 123.12304783 C340.24268493 123.1260344 340.24268493 123.1260344 338.37543082 123.12908131 C337.01947241 123.12622828 335.66351419 123.12328268 334.30755615 123.12025452 C332.86867321 123.12069048 331.42979035 123.12156585 329.99090791 123.12284368 C326.0321875 123.12508369 322.07349406 123.12107408 318.11477709 123.11606562 C313.84759553 123.11175424 309.58041554 123.11320804 305.31323242 123.1139679 C297.91845081 123.11449269 290.52367801 123.11135049 283.12889862 123.10573006 C272.43723883 123.09760909 261.74558331 123.09499922 251.05392078 123.09374207 C233.70814529 123.09155249 216.3623745 123.08489494 199.01660156 123.07543945 C182.1650393 123.06626291 165.31347832 123.05918326 148.46191406 123.05493164 C147.4234905 123.05466892 146.38506693 123.05440619 145.31517598 123.05413551 C140.10580173 123.05283049 134.89642747 123.05156678 129.6870532 123.05032361 C86.4580313 123.03995392 43.22901808 123.02151719 0 123 C0 82.41 0 41.82 0 0 Z " fill="#00FCB8" transform="translate(83,78)"/>
<path d="M0 0 C81.18 0 162.36 0 246 0 C246 107.08695652 246 107.08695652 238.75390625 115.65625 C238.03074219 116.2646875 237.30757812 116.873125 236.5625 117.5 C235.48162109 118.44359375 235.48162109 118.44359375 234.37890625 119.40625 C228.74384296 123.18146481 223.23809752 123.28471116 216.69863892 123.24050903 C215.77062953 123.24221788 214.84262015 123.24392673 213.88648927 123.24568737 C210.78183187 123.24897745 207.67739135 123.23798639 204.57275391 123.22705078 C202.34529628 123.22648656 200.11783827 123.22680343 197.89038086 123.22793579 C191.84544183 123.22850989 185.80058208 123.2167462 179.75566149 123.20278788 C173.43756544 123.19029015 167.11946759 123.18911077 160.80136108 123.18673706 C150.19747382 123.18122601 139.59361788 123.16873135 128.98974609 123.15087891 C118.06917463 123.13251243 107.14861111 123.11838262 96.22802734 123.10986328 C95.54767964 123.10932729 94.86733195 123.10879129 94.16636765 123.10823905 C88.24804203 123.10361317 82.32971619 123.09930766 76.4113903 123.09503365 C50.94089951 123.07622451 25.47048579 123.03638063 0 123 C0 82.41 0 41.82 0 0 Z " fill="#39B2B2" transform="translate(83,231)"/>
<path d="M0 0 C40.92 0 81.84 0 124 0 C124.061875 16.29375 124.12375 32.5875 124.1875 49.375 C124.21481201 54.50466309 124.24212402 59.63432617 124.27026367 64.91943359 C124.28381348 71.22192383 124.28381348 71.22192383 124.28633118 74.17984009 C124.29091389 76.22942055 124.30141496 78.27899333 124.31672668 80.32852173 C124.33884726 83.44750854 124.34171265 86.56600451 124.34057617 89.68505859 C124.3513705 90.58591375 124.36216482 91.48676891 124.37328625 92.41492271 C124.32592598 102.19560675 122.08753412 109.97188545 115.25 117.0859375 C107.39647226 123.76688992 98.18931414 124.15312441 88.32275391 124.11352539 C86.8645778 124.11370619 86.8645778 124.11370619 85.37694359 124.11389065 C82.24345961 124.11314679 79.11003578 124.10554258 75.9765625 124.09765625 C74.03670277 124.0961852 72.09684263 124.09516549 70.15698242 124.09460449 C62.97964888 124.08937052 55.80232384 124.07540927 48.625 124.0625 C24.555625 124.0315625 24.555625 124.0315625 0 124 C0 83.08 0 42.16 0 0 Z " fill="#1D5472" transform="translate(83,384)"/>
</svg>
